<svg width="15" height="17" viewBox="0 0 15 17" fill="none" xmlns="http://www.w3.org/2000/svg">
<path d="M14.3883 9.59382C14.0969 8.99161 13.689 8.4671 13.2033 8.05915C12.6983 7.6512 12.1155 7.34038 11.4744 7.14612C10.8334 6.95186 10.134 6.85473 9.39582 6.85473H5.56886V5.32006H10.1146C10.542 5.32006 10.7751 5.08695 10.7751 4.65957V3.64941C10.7751 3.22204 10.542 2.98892 10.1146 2.98892H5.56886V0.832619C5.56886 0.618931 5.49116 0.444096 5.33575 0.288686C5.18034 0.133277 5.0055 0.0555725 4.79182 0.0555725H3.89821C3.68452 0.0555725 3.50969 0.133277 3.35428 0.288686C3.19887 0.444096 3.12117 0.618931 3.12117 0.832619V3.00835H1.60592C1.17855 3.00835 0.945435 3.24146 0.945435 3.66884V4.679C0.945435 5.10638 1.17855 5.33949 1.60592 5.33949H3.12117V6.87416H1.60592C1.17855 6.87416 0.945435 7.10727 0.945435 7.53465V8.54481C0.945435 8.97218 1.17855 9.2053 1.60592 9.2053H3.12117V15.8102C3.12117 16.0239 3.19887 16.1987 3.35428 16.3541C3.50969 16.5095 3.68452 16.5872 3.89821 16.5872H9.39582C10.134 16.5872 10.8139 16.4901 11.455 16.3153C12.1155 16.121 12.6983 15.8296 13.1839 15.4411C13.689 15.0526 14.0775 14.5475 14.3883 13.9453C14.6797 13.3431 14.8351 12.6243 14.8351 11.789C14.8351 10.9537 14.6797 10.2349 14.3883 9.63267V9.59382ZM12.3874 11.7501C12.3874 12.6243 12.1155 13.2459 11.591 13.6345C11.047 14.023 10.27 14.2367 9.25983 14.2367H5.53001V9.18587H9.25983C10.27 9.18587 11.047 9.39956 11.5715 9.82693C12.0961 10.2349 12.368 10.8954 12.368 11.7501H12.3874Z" fill="url(#paint0_linear_2_31)"/>
<defs>
<linearGradient id="paint0_linear_2_31" x1="2.80557" y1="17.9445" x2="15.25" y2="4.33335" gradientUnits="userSpaceOnUse">
<stop stop-color="#209CFF"/>
<stop offset="1" stop-color="#68E0CF"/>
</linearGradient>
</defs>
</svg>
