<svg width="35" height="67" viewBox="0 0 35 67" fill="none" xmlns="http://www.w3.org/2000/svg">
<g clip-path="url(#clip0_278_1046)">
<path d="M26.8839 29.1686C26.0723 28.9691 26.2177 31.1217 26.6235 32.7176C26.9881 34.1582 27.8227 32.8203 28.7628 33.7974C29.7028 34.7746 31.2667 35.1353 31.3708 34.7232C31.475 34.3111 30.1716 31.8933 30.1716 31.2769C30.1716 30.6606 29.389 29.7849 26.8851 29.1674L26.8839 29.1686Z" fill="url(#paint0_linear_278_1046)"/>
<path d="M18.9022 6.94512C20.2904 6.68829 20.311 5.70996 20.2589 4.57872C20.2068 3.44748 20.9894 3.90977 19.9985 2.21231C19.0076 0.514852 19.0124 0.41212 18.4625 0C18.4625 0 18.7992 0.925777 18.0688 2.16094C17.3383 3.39611 16.9216 3.96113 17.4946 4.73281C18.0688 5.50449 18.5436 5.60722 18.4625 6.17344C18.3813 6.73966 18.4322 7.03232 18.9034 6.94512H18.9022Z" fill="url(#paint1_linear_278_1046)"/>
<path d="M0.669819 28.6537C0.203443 27.8796 3.17371 30.5447 3.01745 31.8945C2.86118 33.2444 2.89994 34.7495 1.92237 35.0971C0.944799 35.4447 -0.0739597 34.5572 0.00477914 33.8237C0.0835179 33.0903 0.083518 32.898 0.513553 32.2804C0.943588 31.6628 1.5311 30.0812 0.669819 28.6537Z" fill="url(#paint2_linear_278_1046)"/>
<path d="M31.0303 39.3031C29.8565 37.8374 25.7354 38.891 25.2133 36.2164C25.2133 36.2164 24.1715 37.3476 25.475 38.7895C26.7784 40.2289 28.7348 40.3842 29.7789 42.2357C30.8231 44.0873 30.9794 44.8327 29.7789 45.8624C28.5785 46.8921 26.5313 47.8179 26.845 46.1706C27.1588 44.5233 27.1975 42.4281 26.18 41.734C26.18 41.734 25.9062 43.1233 24.5362 43.6632C23.5344 44.0586 22.776 45.3583 22.776 46.3259C22.776 50.6466 28.0842 49.1809 28.9189 50.9822C29.2956 51.7945 29.0436 52.6295 28.2914 53.1886C27.3768 53.8707 25.7197 54.1514 23.5465 53.5016C19.5805 52.3178 19.79 49.4377 19.9984 46.5063C20.2067 43.5736 18.1208 42.4938 16.764 41.9777C16.764 41.9777 18.6416 45.2185 17.3903 45.9388C16.1378 46.6592 9.35653 45.0632 11.4437 41.6182C13.5309 38.1719 18.3303 37.1422 20.9384 35.9584C23.5477 34.7758 24.2248 32.1525 21.3563 27.1617C21.3563 27.1617 21.1468 28.2416 19.165 26.9061C17.182 25.5682 16.5557 24.1789 16.6611 22.1732C16.764 20.1664 19.2679 18.3662 18.2262 16.5135C17.182 14.6619 14.9397 13.8389 14.9397 12.2955C14.9397 10.7521 18.7991 11.0102 19.165 12.759C19.165 12.759 19.5029 11.8069 17.4957 9.82637C15.5393 7.89717 13.2971 8.92687 10.8707 11.3184C8.44437 13.7099 9.87863 16.7201 8.93982 16.9758C8.00101 17.2338 7.531 16.6676 7.531 16.6676C7.531 16.6676 7.21846 19.4449 9.25235 21.1961C10.2675 22.0693 11.05 22.6869 11.577 23.4108H11.5782C12.1075 24.1395 12.3825 24.9757 12.3825 26.2885C12.3825 28.9117 12.7484 31.4836 11.5479 32.8215C10.3474 34.1594 8.73025 34.3648 7.84353 36.1137C6.95802 37.8637 4.24456 37.1434 6.85263 33.543C6.85263 33.543 3.09619 33.8512 3.04531 36.6811C2.99201 39.5098 4.19247 39.9733 3.40993 41.0531C2.62739 42.133 1.92358 42.5451 1.92358 44.6284C1.92358 48.2228 5.44502 48.101 5.75756 52.4993C6.07009 56.8977 5.28755 57.0518 3.83997 57.2835C3.83997 57.2835 3.25366 62.6076 7.79144 64.0745C8.11488 64.1796 8.42862 64.2824 8.73025 64.3827C11.4704 65.2965 13.3189 66.036 14.8525 66.4971C14.8561 66.4983 14.8598 66.4983 14.8634 66.5007C15.5224 66.6978 16.1232 66.8435 16.7119 66.9295C18.8246 67.2377 24.5374 66.466 27.0413 66.3896C29.5452 66.3119 32.5966 64.7686 33.6929 62.4547C34.3846 60.995 34.7007 59.5627 34.645 58.1818V58.1782C34.6123 57.3707 34.4512 56.5823 34.1629 55.8154C33.3803 53.7345 33.1066 50.4172 34.6511 46.3271C36.1968 42.2369 32.2065 40.7712 31.0327 39.3055L31.0303 39.3031ZM7.73814 51.4947C7.73814 51.4947 7.84111 50.3109 7.42561 48.9216C7.00769 47.5324 5.91261 46.6592 5.80722 46.0416C5.70426 45.424 6.25906 42.4926 6.27723 42.6467C6.38262 43.5199 7.00769 43.3144 8.05189 46.0416C9.09366 48.7675 7.73935 51.4935 7.73935 51.4935L7.73814 51.4947Z" fill="url(#paint3_linear_278_1046)"/>
<path d="M31.8528 61.7965C31.6178 62.6841 30.679 64.1892 23.1273 64.1116C15.5756 64.0339 17.8457 63.1476 16.5157 63.4558C15.1856 63.764 15.6944 64.4974 16.3982 65.0374C17.1008 65.5761 17.1383 67.0215 14.8634 66.4983C14.8597 66.4971 14.8561 66.4971 14.8525 66.4947C13.3189 66.0336 11.4703 65.2942 8.73022 64.3804C8.30018 62.4894 7.02704 60.7537 8.44676 58.5928C9.86527 56.4318 11.8204 51.5712 11.7041 50.0278C11.5866 48.4845 9.74777 47.2111 9.04396 45.5518C8.34016 43.8926 7.08761 42.1951 8.10515 39.3402C9.1227 36.4852 8.14392 37.0251 10.6478 35.5976C13.1517 34.1702 13.973 33.862 13.8955 32.3568C13.818 30.8517 13.7005 29.7718 13.3867 27.225C13.0742 24.6782 12.4746 22.9306 13.165 22.067C13.165 22.067 13.4267 22.7371 14.2092 25.4117C14.9918 28.0863 16.036 28.1902 17.3915 29.6297C18.7482 31.0715 18.0178 33.1285 15.2789 34.6719C12.54 36.2152 13.3225 37.5531 12.3837 38.5804C11.4449 39.6101 9.38072 39.6257 9.09726 41.4103C8.78352 43.3909 9.20144 44.3895 10.5315 45.5256C11.8798 46.6771 13.5769 48.2515 13.7101 50.4638C13.8446 52.6773 12.8513 53.6772 13.7101 54.1168C15.3685 54.9661 18.9239 51.0301 17.1444 47.5969C17.1444 47.5969 21.4726 48.9551 17.6144 54.4262C15.6653 57.1892 15.6556 58.7982 16.2976 60.0847C17.0281 61.5505 18.9832 62.4177 20.598 61.7488C22.7215 60.8696 23.1188 58.8508 24.8789 59.3131C26.6391 59.7766 26.7057 60.8337 27.9049 60.9592C28.8922 61.0619 28.9612 59.982 28.7662 58.9009C28.5712 57.8211 28.3192 57.1318 28.6354 56.3291C29 55.4033 30.2005 54.8371 30.8788 54.812C31.2289 54.7989 28.8922 56.8953 30.3701 58.8245C31.3392 60.0895 32.0914 60.9078 31.8564 61.7953L31.8528 61.7965Z" fill="url(#paint4_linear_278_1046)"/>
<path d="M20.936 35.9584C20.936 35.9584 22.6053 32.7176 21.2486 30.4551C19.8918 28.1914 17.1796 27.9859 15.4062 25.0008C13.6315 22.018 13.2148 19.5488 12.4843 20.2691C11.7539 20.9883 11.5746 23.4096 11.5746 23.4096H11.5734C11.0477 22.6857 10.2651 22.0681 9.24879 21.1949C7.21369 19.4449 7.52744 16.6664 7.52744 16.6664C7.52744 16.6664 7.99744 17.2326 8.93625 16.9746C9.87506 16.7189 8.44202 13.7087 10.8672 11.3172C13.2923 8.92568 15.5358 7.89598 17.4921 9.82518C19.5006 11.8057 19.1614 12.7578 19.1614 12.7578C18.7956 11.009 14.9362 10.751 14.9362 12.2943C14.9362 13.8377 17.1784 14.6607 18.2226 16.5123C19.2644 18.3638 16.7605 20.1652 16.6575 22.1721C16.5521 24.1789 17.1784 25.567 19.1614 26.9049C21.1432 28.2416 21.3528 27.1605 21.3528 27.1605C24.2213 32.1513 23.5441 34.7746 20.9348 35.9572L20.936 35.9584Z" fill="url(#paint5_linear_278_1046)"/>
<path d="M34.6487 46.3247C33.1042 50.4148 33.378 53.7321 34.1605 55.813C34.4488 56.5799 34.61 57.3683 34.6427 58.1758C34.3677 56.8344 33.143 55.8142 32.3096 54.6328C31.4737 53.4502 31.1612 52.0096 31.3756 49.8486C31.5912 47.6877 30.3266 48.5633 30.0068 47.6375C29.6845 46.7117 29.5973 48.5131 29.9632 50.8783C30.3217 53.2053 28.3581 53.1898 28.2915 53.1886C29.0437 52.6283 29.2957 51.7934 28.919 50.9823C28.0843 49.1809 22.7761 50.6478 22.7761 46.3259C22.7761 45.3583 23.5356 44.0586 24.5362 43.6632C25.9051 43.1233 26.1801 41.734 26.1801 41.734C27.1976 42.4281 27.1576 44.5245 26.8451 46.1706C26.5326 47.8167 28.5786 46.8909 29.779 45.8624C30.9795 44.8327 30.8232 44.0873 29.779 42.2357C28.7348 40.3842 26.7785 40.2289 25.475 38.7895C24.1716 37.3476 25.2134 36.2164 25.2134 36.2164C25.7355 38.891 29.8566 37.8374 31.0304 39.3031C32.2042 40.7688 36.1944 42.2357 34.6487 46.3247Z" fill="url(#paint6_linear_278_1046)"/>
</g>
<defs>
<linearGradient id="paint0_linear_278_1046" x1="28.8354" y1="29.6309" x2="28.8354" y2="36.0098" gradientUnits="userSpaceOnUse">
<stop stop-color="#8B1511"/>
<stop offset="1" stop-color="#FC790F"/>
</linearGradient>
<linearGradient id="paint1_linear_278_1046" x1="18.8634" y1="0.617583" x2="18.8634" y2="14.3155" gradientUnits="userSpaceOnUse">
<stop stop-color="#8B1511"/>
<stop offset="1" stop-color="#FC790F"/>
</linearGradient>
<linearGradient id="paint2_linear_278_1046" x1="1.51172" y1="31.1742" x2="1.51172" y2="38.1779" gradientUnits="userSpaceOnUse">
<stop stop-color="#8B1511"/>
<stop offset="1" stop-color="#FC790F"/>
</linearGradient>
<linearGradient id="paint3_linear_278_1046" x1="18.4612" y1="68.2137" x2="18.4612" y2="11.273" gradientUnits="userSpaceOnUse">
<stop stop-color="#FFE40C"/>
<stop offset="0.49" stop-color="#F89A00"/>
<stop offset="1" stop-color="#FC790F"/>
</linearGradient>
<linearGradient id="paint4_linear_278_1046" x1="19.8082" y1="67.1852" x2="19.8082" y2="31.1647" gradientUnits="userSpaceOnUse">
<stop stop-color="#FFEAB5"/>
<stop offset="0.52" stop-color="#FFE40C"/>
<stop offset="1" stop-color="#F89A00"/>
</linearGradient>
<linearGradient id="paint5_linear_278_1046" x1="15.3662" y1="8.43711" x2="15.3662" y2="39.1108" gradientUnits="userSpaceOnUse">
<stop stop-color="#8B1511"/>
<stop offset="0.49" stop-color="#FC790F"/>
<stop offset="0.99" stop-color="#F89A00"/>
</linearGradient>
<linearGradient id="paint6_linear_278_1046" x1="28.8875" y1="38.3761" x2="28.8875" y2="57.1091" gradientUnits="userSpaceOnUse">
<stop stop-color="#8B1511"/>
<stop offset="0.49" stop-color="#FC790F"/>
<stop offset="0.99" stop-color="#F89A00"/>
</linearGradient>
<clipPath id="clip0_278_1046">
<rect width="35" height="67" fill="white"/>
</clipPath>
</defs>
</svg>
