<svg width="29" height="47" viewBox="0 0 29 47" fill="none" xmlns="http://www.w3.org/2000/svg">
<path d="M28.038 41.8389C29.4093 40.0345 29.1641 37.3102 28.2405 37.1303C26.4249 36.7769 26.7215 35.1502 25.2232 34.8447C25.2232 34.8447 25.2955 37.9681 23.029 40.3379C21.9259 41.4919 22.8813 43.2612 22.3286 44.4972C22.322 44.5121 22.3144 44.527 22.3067 44.5419C22.2312 44.1256 21.9511 43.6338 21.4279 43.0504C20.3927 41.8953 20.7385 40.8702 21.4367 39.7843C22.4096 38.2694 24.0676 36.6363 23.6101 34.3741C22.8233 30.4895 18.3385 28.4487 17.0066 29.0374C15.6759 29.6261 13.8045 32.3983 13.8647 30.8088C13.9084 29.6697 14.8223 29.3163 15.6266 27.9728C15.944 27.4416 16.2439 26.756 16.4671 25.8064C17.254 22.4519 12.837 19.5084 12.837 19.5084C13.0898 20.8359 9.99384 22.9746 9.0483 25.1932C8.86225 25.6318 8.75938 26.0725 8.78236 26.5122C9.20589 34.34 5.87788 33.2457 5.87788 33.2457C3.76025 35.0459 7.26993 38.3418 6.42288 40.2846C6.26638 40.6423 6.28718 41.115 6.46337 41.643C2.99418 39.1168 4.42673 40.2261 3.33782 39.1668C2.24891 38.1076 1.61089 36.6001 3.76134 35.0469C5.42809 33.8429 1.92826 30.9057 1.92826 30.9057C2.35178 33.0828 0.191474 32.0459 0.00980697 35.1651C-0.17186 38.2843 2.36929 39.4032 1.82538 42.5809C1.61089 43.835 2.5039 44.8975 3.99773 45.665C5.07789 46.2207 6.47213 46.6221 7.98894 46.8318C8.51205 46.9052 9.04939 46.9542 9.59221 46.9798C10.8146 47.0373 12.071 46.9723 13.2715 46.7658C14.2586 46.9681 15.329 47.0404 16.466 46.9361C17.046 46.8829 17.6009 46.8243 18.1207 46.7573C18.1207 46.7573 23.1811 47.1512 24.1497 45.994C25.1182 44.8368 26.6667 43.6444 28.038 41.8389Z" fill="url(#paint0_linear_278_1054)"/>
<path d="M11.6157 15.6557C11.6157 15.6557 11.5216 13.9406 10.2969 9.70042C9.07233 5.46021 15.1954 5.03119 15.1954 5.03119C15.1954 5.03119 13.4816 7.36581 16.7625 8.98609C20.0446 10.6064 20.8282 10.7969 19.6036 14.4176C18.3789 18.0382 15.1429 19.5105 15.1429 19.5105C15.1429 19.5105 16.3215 12.3683 14.2652 13.3221C12.2077 14.2749 13.3765 14.656 11.6168 15.6567L11.6157 15.6557Z" fill="url(#paint1_linear_278_1054)"/>
<path d="M1.09888 28.5094C1.29915 29.74 1.15907 30.334 2.61131 29.6846C4.55603 28.8159 5.03099 31.4689 5.33413 30.4959C5.63618 29.5228 5.46765 28.0026 4.72894 27.0903C2.00612 23.7251 5.89993 25.2187 5.15247 26.2386C4.85808 26.641 6.68022 25.7202 6.12099 24.7748C4.9708 22.833 0.000120997 21.7791 1.09888 28.5094Z" fill="url(#paint2_linear_278_1054)"/>
<path d="M13.6862 0.393898C11.8674 1.72036 14.6547 1.88537 15.0575 0.786726C15.4602 -0.311917 14.3319 -0.0766454 13.6862 0.393898Z" fill="url(#paint3_linear_278_1054)"/>
<path d="M4.34365 19.5105C3.69578 19.4583 3.93983 21.1585 4.74748 21.3938C5.55404 21.629 5.31218 19.5893 4.34365 19.5105Z" fill="url(#paint4_linear_278_1054)"/>
<path d="M21.5113 23.3089C21.1994 24.5885 21.5113 24.2511 21.9151 25.7415C22.3189 27.2329 23.6902 23.3877 22.6407 22.0932C21.5922 20.7976 21.671 22.6563 21.5113 23.3089Z" fill="url(#paint5_linear_278_1054)"/>
<path d="M16.4662 46.9361C15.3291 47.0404 14.2588 46.9681 13.2717 46.7658C12.0711 46.9723 10.8148 47.0373 9.59236 46.9798C9.12835 44.9549 9.9557 43.2271 10.4602 41.1235C11.0249 38.7698 9.58142 36.6502 9.45557 35.0022C9.45557 35.0022 11.3368 36.8067 13.0769 38.0629C14.8169 39.318 18.7698 36.8077 17.3986 35.4728C16.0273 34.1388 17.682 31.784 17.682 31.784C17.682 31.784 17.6404 33.9025 19.2536 34.9234C20.8667 35.9433 22.3868 36.5714 21.3854 38.8475C21.2552 39.1434 21.2858 39.4564 21.4368 39.7854C20.7386 40.8712 20.3917 41.8975 21.4281 43.0515C23.9091 45.8172 20.9444 46.5241 16.4673 46.9361H16.4662Z" fill="url(#paint6_linear_278_1054)"/>
<path d="M7.988 46.8318C6.47119 46.6221 5.07695 46.2197 3.9968 45.665C3.74947 43.9287 3.33141 41.7101 2.79517 40.8095C2.79517 40.8095 4.84604 41.2023 5.23235 42.7715C5.61867 44.3407 7.0742 43.8425 7.7155 45.3616C7.87638 45.7427 7.95736 46.2644 7.98691 46.8318H7.988Z" fill="url(#paint7_linear_278_1054)"/>
<path d="M16.4661 25.8075C16.2439 26.7571 15.9429 27.4427 15.6256 27.9728C16.1126 24.6322 14.251 24.6428 14.1099 25.8181C13.9687 26.9934 12.477 26.6048 11.8445 26.9189C10.9329 27.3713 9.8538 26.0108 9.04834 25.1943C9.99279 22.9757 13.0888 20.837 12.8371 19.5094C12.8371 19.5094 17.254 22.4519 16.4671 25.8075H16.4661Z" fill="url(#paint8_linear_278_1054)"/>
<defs>
<linearGradient id="paint0_linear_278_1054" x1="14.4994" y1="47.1724" x2="14.4994" y2="21.5364" gradientUnits="userSpaceOnUse">
<stop stop-color="#FFE40C"/>
<stop offset="0.49" stop-color="#F89A00"/>
<stop offset="1" stop-color="#FC790F"/>
</linearGradient>
<linearGradient id="paint1_linear_278_1054" x1="15.1429" y1="2.51453" x2="15.1429" y2="43.4944" gradientUnits="userSpaceOnUse">
<stop stop-color="#8B1511"/>
<stop offset="0.49" stop-color="#FC790F"/>
<stop offset="0.99" stop-color="#F89A00"/>
</linearGradient>
<linearGradient id="paint2_linear_278_1054" x1="3.58422" y1="18.5577" x2="3.58422" y2="34.85" gradientUnits="userSpaceOnUse">
<stop stop-color="#8B1511"/>
<stop offset="0.49" stop-color="#FC790F"/>
<stop offset="0.99" stop-color="#F89A00"/>
</linearGradient>
<linearGradient id="paint3_linear_278_1054" x1="14.2093" y1="-0.123487" x2="13.4456" y2="7.15314" gradientUnits="userSpaceOnUse">
<stop stop-color="#8B1511"/>
<stop offset="0.49" stop-color="#FC790F"/>
<stop offset="0.99" stop-color="#F89A00"/>
</linearGradient>
<linearGradient id="paint4_linear_278_1054" x1="4.59536" y1="20.5272" x2="3.98408" y2="27.2265" gradientUnits="userSpaceOnUse">
<stop stop-color="#8B1511"/>
<stop offset="0.49" stop-color="#FC790F"/>
<stop offset="0.99" stop-color="#F89A00"/>
</linearGradient>
<linearGradient id="paint5_linear_278_1054" x1="22.2062" y1="30.9579" x2="22.2062" y2="16.5659" gradientUnits="userSpaceOnUse">
<stop stop-color="#FFE40C"/>
<stop offset="0.49" stop-color="#F89A00"/>
<stop offset="1" stop-color="#FC790F"/>
</linearGradient>
<linearGradient id="paint6_linear_278_1054" x1="15.8916" y1="48.6927" x2="15.8916" y2="35.0341" gradientUnits="userSpaceOnUse">
<stop stop-color="#FFEAB5"/>
<stop offset="0.52" stop-color="#FFE40C"/>
<stop offset="1" stop-color="#F89A00"/>
</linearGradient>
<linearGradient id="paint7_linear_278_1054" x1="5.39213" y1="46.6529" x2="5.39213" y2="38.988" gradientUnits="userSpaceOnUse">
<stop stop-color="#FFEAB5"/>
<stop offset="0.52" stop-color="#FFE40C"/>
<stop offset="1" stop-color="#F89A00"/>
</linearGradient>
<linearGradient id="paint8_linear_278_1054" x1="12.8032" y1="14.4431" x2="12.8032" y2="38.7261" gradientUnits="userSpaceOnUse">
<stop stop-color="#8B1511"/>
<stop offset="0.49" stop-color="#FC790F"/>
<stop offset="0.99" stop-color="#F89A00"/>
</linearGradient>
</defs>
</svg>
