<svg width="15" height="14" viewBox="0 0 15 14" fill="none" xmlns="http://www.w3.org/2000/svg">
<path d="M10.2282 4.10974L14.0377 4.68931C14.1932 4.7128 14.3393 4.78048 14.4596 4.88477C14.58 4.98907 14.6698 5.12586 14.719 5.27981C14.7681 5.43461 14.7745 5.60044 14.7376 5.75879C14.7006 5.91713 14.6216 6.06176 14.5095 6.1765L11.7472 8.97046L12.3994 12.9782C12.426 13.1396 12.408 13.3054 12.3475 13.4567C12.287 13.608 12.1865 13.7387 12.0574 13.8339C11.9289 13.9291 11.7772 13.9854 11.6194 13.9965C11.4615 14.0076 11.3038 13.9731 11.164 13.8968L7.76016 12.0255L4.35897 13.8982C4.21869 13.9745 4.06056 14.0091 3.9023 13.998C3.74404 13.9869 3.59191 13.9305 3.46295 13.8353C3.33417 13.7399 3.23404 13.6091 3.17403 13.4577C3.11401 13.3064 3.09655 13.1407 3.12362 12.9796L3.77576 8.97183L1.01266 6.1765C0.900663 6.0617 0.821801 5.91706 0.784868 5.75872C0.747935 5.60039 0.754384 5.43459 0.803496 5.27981C0.852428 5.12555 0.942245 4.98849 1.06279 4.88413C1.18333 4.77978 1.32979 4.71229 1.48559 4.68931L5.29185 4.10974L6.99907 0.492089C7.0682 0.344601 7.17626 0.220199 7.31083 0.133159C7.4454 0.04612 7.60105 -3.03018e-05 7.7599 2.83352e-06C7.91917 -0.000415725 8.07533 0.0455448 8.21039 0.132599C8.34546 0.219653 8.45395 0.344263 8.52338 0.492089L10.2282 4.10974Z" fill="#FBB200"/>
</svg>
